HIERARCHY
ROOT hip
{
	OFFSET 0.000000 0.000000 0.000000 
	CHANNELS 6 Xposition Yposition Zposition Xrotation Zrotation Yrotation
	JOINT abdomen
	{
		OFFSET 0.000000 3.402643 0.000000 
		CHANNELS 3 Xrotation Zrotation Yrotation
		JOINT chest
		{
			OFFSET 0.000000 8.438565 -0.680529 
			CHANNELS 3 Xrotation Zrotation Yrotation
			JOINT neck
			{
				OFFSET 0.000000 10.207942 -0.272212 
				CHANNELS 3 Xrotation Zrotation Yrotation
				JOINT head
				{
					OFFSET 0.000000 3.130431 0.000000 
					CHANNELS 3 Xrotation Zrotation Yrotation
					End Site
					{
						OFFSET 0.000000 3.130435 0.000000 
					}
				}
			}
			JOINT lCollar
			{
				OFFSET 3.470700 6.669187 -0.816635 
				CHANNELS 3 Yrotation Zrotation Xrotation
				JOINT lShldr
				{
					OFFSET 3.198488 0.000000 0.000000 
					CHANNELS 3 Zrotation Yrotation Xrotation
					JOINT lForeArm
					{
						OFFSET 10.139888 0.000000 0.000000 
						CHANNELS 3 Yrotation Zrotation Xrotation
						JOINT lHand
						{
							OFFSET 8.370511 0.000000 0.000000 
							CHANNELS 3 Zrotation Yrotation Xrotation
							End Site
							{
								OFFSET 4.083176 0.000000 0.000000 
							}
						}
					}
				}
			}
			JOINT rCollar
			{
				OFFSET -3.470700 6.669187 -0.816635 
				CHANNELS 3 Yrotation Zrotation Xrotation
				JOINT rShldr
				{
					OFFSET -3.198488 0.000000 0.000000 
					CHANNELS 3 Zrotation Yrotation Xrotation
					JOINT rForeArm
					{
						OFFSET -10.139888 0.000000 0.000000 
						CHANNELS 3 Yrotation Zrotation Xrotation
						JOINT rHand
						{
							OFFSET -8.370511 0.000000 0.000000 
							CHANNELS 3 Zrotation Yrotation Xrotation
							End Site
							{
								OFFSET -4.083176 0.000000 0.000000 
							}
						}
					}
				}
			}
		}
	}
	JOINT lThigh
	{
		OFFSET 5.308129 -1.633274 1.361059 
		CHANNELS 3 Xrotation Zrotation Yrotation
		JOINT lShin
		{
			OFFSET -2.041588 -20.007561 0.000000 
			CHANNELS 3 Xrotation Zrotation Yrotation
			JOINT lFoot
			{
				OFFSET 0.000000 -19.190928 -1.224953 
				CHANNELS 3 Xrotation Yrotation Zrotation
				End Site
				{
					OFFSET 0.000000 -2.449906 4.627600 
				}
			}
		}
	}
	JOINT rThigh
	{
		OFFSET -5.308129 -1.633274 1.361059 
		CHANNELS 3 Xrotation Zrotation Yrotation
		JOINT rShin
		{
			OFFSET 2.041588 -20.007561 0.000000 
			CHANNELS 3 Xrotation Zrotation Yrotation
			JOINT rFoot
			{
				OFFSET 0.000000 -19.190928 -1.224953 
				CHANNELS 3 Xrotation Yrotation Zrotation
				End Site
				{
					OFFSET 0.000000 -2.449906 4.627600 
				}
			}
		}
	}
}
MOTION
Frames: 13
Frame Time: 0.033333
-55.818111 6.806128 -44.219971 3.164063 -1.933594 76.874664 8.261718 -1.806641 -1.357422 1.230469 2.626953 0.937500 -8.447267 0.000000 0.000000 21.445314 -1.884766 12.382492 -2.812500 -0.087891 -0.009766 -88.007813 0.068359 -4.072267 -8.232423 -12.089844 3.759766 23.203125 -11.220702 10.693357 2.802734 0.078125 -0.009779 78.222656 -4.755859 -15.303544 12.197266 5.888671 6.044921 -17.988281 21.132813 13.212891 -13.801786 10.607978 9.534898 11.647765 -3.164244 3.472740 5.792706 -2.625882 -11.155128 8.641942 -11.151983 -20.438105 3.990117 6.163524 3.588829 -12.659971 -7.566113 0.649200 
-55.819363 6.806808 -44.219296 3.164063 -1.933594 76.874664 8.261718 -1.806641 -1.357422 1.230469 2.626953 0.937500 -8.447267 0.000000 0.000000 21.445314 -1.884766 12.382492 -2.812500 -0.087891 -0.009766 -88.007813 0.068359 -4.072267 -8.232423 -12.089844 3.759766 23.203125 -11.220702 10.693357 2.802734 0.078125 -0.009779 78.222656 -4.755859 -15.303544 12.197266 5.888671 6.044921 -17.988281 21.132813 13.212891 -13.817450 10.614337 9.359418 11.642927 -3.145106 3.474387 5.942207 -2.671461 -11.355077 8.641944 -11.151985 -20.438105 3.990116 6.163525 3.588829 -12.659971 -7.566114 0.649200 
-55.817547 6.807259 -44.221672 3.164063 -1.933594 76.874664 8.261718 -1.806641 -1.357422 1.230469 2.626953 0.937500 -8.447267 0.000000 0.000000 21.445314 -1.884766 12.382492 -2.812500 -0.087891 -0.009766 -88.007813 0.068359 -4.072267 -8.232422 -12.070312 3.935547 23.203125 -11.220702 10.693357 2.802734 0.078125 -0.009779 78.212891 -4.580078 -15.283785 12.197266 5.888671 6.044921 -17.998047 21.308596 13.212891 -13.817451 10.614335 9.359419 11.642927 -3.145108 3.474387 5.920096 -2.792076 -11.026723 8.641944 -11.151986 -20.438105 3.990116 6.163525 3.588829 -12.659971 -7.566114 0.649200 
-55.814602 6.807259 -44.224617 3.164063 -1.933594 76.874664 8.261718 -1.806641 -1.357422 1.230469 2.626953 0.937500 -8.447267 0.000000 0.000000 21.445314 -1.884766 12.382492 -2.812500 -0.087891 -0.009766 -88.007813 0.068359 -3.896485 -8.232422 -12.070312 3.935547 23.203125 -11.220702 10.693357 2.802734 0.078125 -0.009779 78.212891 -4.580078 -15.283785 12.197266 5.888671 6.044921 -17.998047 21.308596 13.212891 -13.817451 10.614331 9.359418 11.642927 -3.145106 3.474387 5.920098 -2.792075 -11.026723 8.641942 -11.151985 -20.438103 3.990117 6.163525 3.588829 -12.659971 -7.566114 0.649200 
-55.817547 6.810094 -44.224617 3.164063 -1.933594 76.874664 8.261718 -1.806641 -1.357422 1.230469 2.626953 0.937500 -8.447267 0.000000 0.000000 21.445314 -1.884766 12.382492 -2.812500 -0.087891 -0.009766 -88.007813 0.068359 -3.896485 -8.232422 -12.070312 3.935547 23.203125 -11.220702 10.693357 2.802734 0.078125 -0.009779 78.212891 -4.580078 -15.283785 12.197266 5.888671 6.044921 -17.998047 21.308596 13.212891 -13.902687 10.533482 9.165394 11.789787 -3.311367 3.469790 5.911291 -2.705138 -11.377840 8.755656 -11.256490 -20.449139 4.067433 6.347958 3.433267 -12.888517 -7.530070 0.652865 
-55.814602 6.812927 -44.230282 3.164063 -2.109375 76.864876 8.261718 -1.806641 -1.357422 1.230469 2.626953 0.937500 -8.447267 0.000000 0.000000 21.445314 -1.884766 12.382492 -2.812500 -0.087891 -0.009766 -88.007813 0.068359 -3.896485 -8.232422 -12.070312 3.935547 23.203125 -11.220702 10.693357 2.802734 0.078125 -0.009779 78.212891 -4.580078 -15.283785 12.197266 5.888671 6.044921 -17.998047 21.308596 13.212891 -13.817447 10.614338 9.359416 11.642929 -3.145104 3.474388 5.852281 -2.802831 -11.228507 8.755660 -11.256492 -20.449137 4.067433 6.347960 3.433267 -12.933569 -7.386744 0.537731 
-55.811771 6.812927 -44.233116 3.164063 -2.109375 76.864876 8.261718 -1.806641 -1.357422 1.230469 2.626953 0.937500 -8.447267 0.000000 0.000000 21.445314 -1.884766 12.382492 -2.812500 -0.087891 -0.009766 -88.007813 0.068359 -3.896485 -8.232422 -12.070312 3.935547 23.203125 -11.220702 10.693357 2.802734 0.078125 -0.009779 78.203125 -4.404297 -15.283956 12.021485 5.898438 6.053684 -17.998047 21.308596 13.212891 -13.817447 10.614338 9.359416 11.642929 -3.145104 3.474388 5.852281 -2.802831 -11.228508 8.640698 -11.346271 -20.457808 3.991580 6.175169 3.403786 -12.727683 -7.439941 0.709511 
-55.811771 6.815760 -44.235950 3.164063 -2.109375 76.864876 8.261718 -1.806641 -1.357422 1.230469 2.626953 0.937500 -8.447267 0.000000 0.000000 21.445314 -1.884766 12.382492 -2.812500 -0.087891 -0.009766 -87.832031 0.078125 -3.896485 -8.232422 -12.070312 3.935547 23.203125 -11.220702 10.693357 2.802734 0.078125 -0.009779 78.203125 -4.404297 -15.283956 12.021485 5.898438 6.053684 -17.998047 21.308596 13.212891 -13.969765 10.414966 9.365424 11.643161 -3.143030 3.464810 5.856675 -2.784590 -11.232819 8.640697 -11.346271 -20.457808 3.991580 6.175168 3.403786 -12.727683 -7.439941 0.709511 
-55.806099 6.818592 -44.241619 3.164063 -2.109375 76.864876 8.261718 -1.806641 -1.357422 1.230469 2.626953 0.937500 -8.447267 0.000000 0.000000 21.445314 -1.884766 12.382492 -2.812500 -0.087891 -0.009766 -87.822266 -0.097656 -3.896501 -8.232422 -12.070312 3.935547 23.203125 -11.220702 10.693357 2.802734 0.078125 -0.009779 78.203125 -4.404297 -15.283956 12.021485 5.898438 6.053684 -18.017578 21.484373 13.216468 -13.969766 10.414967 9.365425 11.643161 -3.143030 3.464810 5.856678 -2.784590 -11.232819 8.640698 -11.346270 -20.457808 3.991580 6.175167 3.403786 -12.727684 -7.439940 0.709512 
-55.803268 6.821538 -44.244564 3.164063 -2.109375 76.864876 8.261718 -1.806641 -1.357422 1.230469 2.626953 0.937500 -8.447267 0.000000 0.000000 21.445314 -1.884766 12.382492 -2.812500 -0.087891 -0.009766 -87.822266 -0.097656 -3.896501 -8.232422 -12.070312 3.935547 23.378906 -11.210937 10.693358 2.802734 0.078125 -0.009779 78.203125 -4.404297 -15.108171 11.845703 5.908203 6.074219 -18.017578 21.484373 13.216468 -13.969766 10.414964 9.365425 11.419617 -3.299810 3.291271 5.981824 -2.700262 -11.188216 8.640697 -11.346270 -20.457808 3.991580 6.175169 3.403786 -12.727683 -7.439940 0.709511 
-55.803268 6.827203 -44.247276 3.164063 -2.109375 76.864876 8.261718 -1.806641 -1.357422 1.230469 2.626953 0.937500 -8.447267 0.000000 0.000000 21.445314 -1.884766 12.382492 -2.812500 -0.087891 -0.009766 -87.998047 -0.107422 -3.896502 -8.232422 -12.070312 3.935547 23.378906 -11.210937 10.693358 2.802734 0.078125 -0.009779 78.203125 -4.404297 -15.108171 11.845703 5.908203 6.074219 -18.017578 21.484373 13.216468 -13.969766 10.414966 9.365425 11.419617 -3.299810 3.291271 5.981828 -2.700262 -11.188217 8.640696 -11.346270 -20.457808 3.991580 6.175168 3.403786 -12.727683 -7.439941 0.709511 
-55.797489 6.832867 -44.250225 3.164063 -2.109375 76.864876 8.261718 -1.806641 -1.357422 1.230469 2.626953 0.937500 -8.447267 0.000000 0.000000 21.445314 -1.884766 12.382492 -2.812500 -0.087891 -0.009766 -87.998047 -0.107422 -3.896502 -8.232422 -12.070312 3.935547 23.378906 -11.210937 10.693358 2.802734 0.078125 -0.009779 78.203125 -4.404297 -15.108171 11.845703 5.908203 6.074219 -18.027342 21.660156 13.216495 -13.969766 10.414964 9.365425 11.432995 -3.310654 3.474910 6.046473 -2.637784 -11.154282 8.640697 -11.346271 -20.457808 3.991580 6.175168 3.403786 -12.727683 -7.439941 0.709511 
-55.797489 6.835700 -44.247276 3.164063 -2.109375 76.864876 8.261718 -1.806641 -1.357422 1.230469 2.626953 0.937500 -8.447267 0.000000 0.000000 21.445314 -1.884766 12.382492 -2.812500 -0.087891 -0.009766 -87.998047 -0.107422 -3.896502 -8.232422 -12.070312 3.935547 23.378906 -11.210937 10.693358 2.802734 0.078125 -0.009779 78.203125 -4.404297 -15.108171 11.669921 5.908203 6.083984 -18.027342 21.660156 13.216495 -13.969766 10.414964 9.365425 11.432995 -3.310654 3.474910 6.046477 -2.637784 -11.154282 8.640697 -11.346271 -20.457808 3.991580 6.175169 3.403786 -12.727683 -7.439940 0.709511 
